<svg width="121" height="24" viewBox="0 0 121 24" fill="none" xmlns="http://www.w3.org/2000/svg">
<path d="M7.66535 23.6301H3.10595V11.9821H0V8.18972H3.10583V5.49119C3.10583 2.29342 4.47954 0 9.0266 0C9.98831 0 11.4981 0.198651 11.4981 0.198651V3.72007H9.91232C8.29649 3.72007 7.66559 4.22376 7.66559 5.61631V8.18972H11.4376L11.1018 11.9821H7.66547L7.66535 23.6301ZM18.127 7.88666C18.0606 7.88666 17.9922 7.88914 17.9246 7.89088C13.6968 7.89088 11.7625 11.1499 11.7625 15.7762C11.7625 21.604 14.2716 23.9365 17.9576 23.9365C20.0665 23.9365 21.4521 23.0268 22.2943 21.3292V23.6317H26.6309V8.19134H22.2943V10.5659C21.6066 9.03815 20.1823 7.90477 18.127 7.88666ZM19.2297 11.5352C21.0054 11.5352 22.0711 12.8045 22.0711 14.9635L22.0752 17.1686C22.0752 18.6238 21.195 20.3262 19.2297 20.3262C16.2083 20.3262 16.289 16.9828 16.289 15.8693C16.289 12.1236 17.8988 11.5352 19.2297 11.5352ZM28.3822 15.9123C28.3822 14.0361 28.2946 7.89671 36.0996 7.89671C39.2327 7.89671 40.5409 8.91762 40.5409 8.91762L39.4894 12.2598C39.4894 12.2598 38.1829 11.5225 36.4804 11.5225C34.2999 11.5225 32.9085 12.818 32.9085 15.0973L32.9109 16.7316C32.9109 18.9217 34.2534 20.3837 36.4849 20.3837C38.0359 20.3837 39.4654 19.6395 39.4654 19.6395L40.5142 22.9119C40.5142 22.9119 39.318 23.9392 36.1215 23.9392C28.6899 23.9392 28.3824 18.4311 28.3824 15.9123H28.3822ZM65.9682 7.89088C70.1961 7.89088 72.1609 11.1499 72.1609 15.7762C72.1609 21.604 69.6517 23.9365 65.9657 23.9365C63.8568 23.9365 62.2978 23.027 61.4557 21.3292V23.6317L57.1736 23.63V0.469472L61.72 0.0631171V10.3567C62.3762 8.55578 64.5327 7.89088 65.9684 7.89088H65.9682ZM64.6936 11.5352C62.9179 11.5352 61.72 12.8045 61.72 14.9635L61.7158 17.1686C61.7131 18.6238 62.5454 20.3262 64.6936 20.3262C67.715 20.3262 67.6343 16.9828 67.6343 15.8693C67.6343 12.1236 66.0246 11.5352 64.6936 11.5352ZM48.4294 7.90365C43.6342 7.90365 41.1026 10.583 41.1026 15.3444V16.229C41.1026 22.4089 44.6577 24 48.8961 24C53.0158 24 54.8805 22.8191 54.8805 22.8191L54.0298 19.6744C54.0298 19.6744 51.8363 20.6309 49.4412 20.6309C46.9583 20.6309 45.8905 19.9823 45.6168 17.537H55.244V15.0142C55.244 9.84925 52.4028 7.90353 48.4293 7.90353L48.4294 7.90365ZM48.545 11.0526C50.2048 11.0526 51.2804 12.0957 51.2214 14.5148H45.6251C45.7221 11.9687 46.8821 11.0527 48.545 11.0527V11.0526ZM81.2263 7.88245C76.302 7.88245 73.7096 10.7263 73.7096 15.8227C73.7096 22.8152 78.1783 23.9407 81.2346 23.9407C85.7087 23.9407 88.6852 21.4722 88.6852 15.8862C88.6852 10.0721 85.3384 7.88245 81.2263 7.88245ZM81.1644 11.5478C83.3297 11.5478 84.1877 13.2086 84.1877 15.099V16.7243C84.1877 19.0144 82.9871 20.339 81.1562 20.339C79.4438 20.339 78.2403 19.0999 78.2403 16.7243V15.099C78.2403 12.5654 79.6723 11.5478 81.1644 11.5478ZM97.7426 7.88245C92.8183 7.88245 90.2258 10.7263 90.2258 15.8227C90.2258 22.8152 94.6946 23.9407 97.7508 23.9407C102.225 23.9407 105.202 21.4722 105.202 15.8862C105.202 10.0721 101.855 7.88245 97.7426 7.88245ZM97.6806 11.5478C99.8459 11.5478 100.704 13.2086 100.704 15.099V16.7243C100.704 19.0144 99.5033 20.339 97.6724 20.339C95.96 20.339 94.7566 19.0999 94.7566 16.7243V15.099C94.7566 12.5654 96.1886 11.5478 97.6806 11.5478ZM106.92 23.6301V0.469472L111.479 0.0632411V15.5869L116.003 8.18985H120.818L116.099 15.8511L121 23.6301H116.171L111.479 16.0766V23.6301H106.92Z" fill="#1877F2"/>
</svg>
