<svg width="116" height="33" viewBox="0 0 116 33" fill="none" xmlns="http://www.w3.org/2000/svg">
<path d="M30.1602 0H35.4962V32.944H30.1602V0Z" fill="#17313B"/>
<path d="M54.0559 22.5039C54.0559 27.6079 49.8799 28.0719 48.4879 28.0719C45.2399 28.0719 44.7759 25.0559 44.7759 23.4319V10.6719H39.4399V23.1999C39.4399 26.2159 40.3679 28.9999 42.2239 30.6239C43.8479 32.2479 45.9359 32.9439 48.4879 32.9439C50.3439 32.9439 52.6639 32.4799 54.0559 31.0879V32.9439H59.3919V10.6719H54.0559V22.5039Z" fill="#17313B"/>
<path d="M69.8322 2.55176H64.4962V10.6718H60.5522V15.7758H64.4962V32.9438H69.8322V15.7758H73.7762V10.6718H69.8322V2.55176Z" fill="#17313B"/>
<path d="M90.4801 26.2161C89.3201 27.1441 87.6961 27.8401 86.0721 27.8401C82.3601 27.8401 79.8081 25.0561 79.8081 21.3441C79.8081 17.6321 82.3601 15.0801 86.0721 15.0801C87.6961 15.0801 89.3201 15.5441 90.4801 16.7041L91.1761 17.4001L94.8881 13.9201L93.9601 13.2241C91.8721 11.3681 89.0881 10.2081 86.0721 10.2081C79.5761 10.2081 74.7041 15.0801 74.7041 21.5761C74.7041 28.0721 79.5761 32.9441 86.0721 32.9441C89.0881 32.9441 91.8721 31.7841 93.9601 29.9281L94.8881 29.2321L91.1761 25.5201L90.4801 26.2161Z" fill="#17313B"/>
<path d="M113.68 12.528C112.056 10.904 110.432 10.208 107.88 10.208C106.024 10.208 104.168 10.672 102.776 12.064V0H97.4399V32.944H102.776V20.648C102.776 15.544 106.256 15.08 107.648 15.08C110.896 15.08 110.664 18.096 110.664 19.72V32.712H116V19.952C116 16.936 115.304 14.152 113.68 12.528Z" fill="#17313B"/>
<path d="M85.8399 25.2878C87.89 25.2878 89.5519 23.6259 89.5519 21.5758C89.5519 19.5257 87.89 17.8638 85.8399 17.8638C83.7899 17.8638 82.1279 19.5257 82.1279 21.5758C82.1279 23.6259 83.7899 25.2878 85.8399 25.2878Z" fill="#EF4335"/>
<path d="M22.736 24.8244C20.88 26.6804 18.096 27.8404 15.08 27.8404C9.28 27.8404 5.104 23.2004 5.104 16.9364C5.104 10.6724 9.28 6.03242 15.312 6.03242C18.096 6.03242 20.88 7.19242 22.968 9.28042L23.664 9.97642L27.144 6.49642L26.448 5.80042C23.432 2.78442 19.488 1.16042 15.312 1.16042C6.496 0.92842 0 7.88842 0 16.9364C0 25.9844 6.496 32.9444 15.08 32.9444C19.256 32.9444 23.432 31.3204 26.216 28.3044L26.912 27.6084L23.432 24.1284L22.736 24.8244Z" fill="#17313B"/>
</svg>
