<svg width="122" height="24" viewBox="0 0 122 24" fill="none" xmlns="http://www.w3.org/2000/svg">
<g clip-path="url(#clip0_2309_5636)">
<path fill-rule="evenodd" clip-rule="evenodd" d="M122 5.53775C121.996 5.46852 121.974 5.40156 121.936 5.34307C121.899 5.28458 121.848 5.23646 121.787 5.20318C121.51 5.06696 121.107 4.9734 120.286 4.9734C118.434 4.9734 116.795 5.8798 116.08 7.39619V5.54374C116.08 5.50534 116.072 5.46736 116.058 5.43197C116.043 5.39658 116.021 5.36448 115.994 5.3375C115.966 5.31052 115.934 5.2892 115.898 5.27476C115.863 5.26032 115.825 5.25303 115.786 5.25333H113.012C112.974 5.25303 112.936 5.26032 112.9 5.27476C112.865 5.2892 112.832 5.31052 112.805 5.3375C112.778 5.36448 112.756 5.39658 112.741 5.43197C112.726 5.46736 112.718 5.50534 112.718 5.54374V18.0311C112.718 18.0695 112.726 18.1075 112.741 18.1429C112.756 18.1783 112.778 18.2104 112.805 18.2374C112.832 18.2644 112.865 18.2857 112.9 18.3001C112.936 18.3146 112.974 18.3218 113.012 18.3216H115.918C115.956 18.3218 115.995 18.3146 116.03 18.3001C116.066 18.2857 116.098 18.2644 116.126 18.2374C116.153 18.2105 116.175 18.1784 116.19 18.143C116.205 18.1076 116.213 18.0696 116.213 18.0311V12.4139C116.213 9.90505 117.984 8.6581 120.286 8.6581C120.741 8.66203 121.193 8.73109 121.629 8.86318C121.813 8.92306 122 8.77337 122 8.58176V5.53775ZM103.433 15.2573C101.447 15.2573 99.9113 13.8727 99.9113 11.7815C99.9113 9.69024 101.448 8.30483 103.433 8.30483C105.418 8.30483 106.954 9.69099 106.954 11.7815C106.954 13.8727 105.418 15.2573 103.433 15.2573ZM103.433 4.93299C99.3559 4.93299 96.3111 7.70381 96.3111 11.7815C96.3111 15.8591 99.3559 18.6299 103.433 18.6299C107.509 18.6299 110.554 15.8591 110.554 11.7815C110.554 7.70381 107.509 4.93299 103.433 4.93299ZM87.2659 15.2573C85.2802 15.2573 83.7444 13.8727 83.7444 11.7815C83.7444 9.69099 85.2802 8.30558 87.2659 8.30558C89.2516 8.30558 90.7867 9.69024 90.7867 11.7815C90.7867 13.8727 89.2516 15.2573 87.2659 15.2573ZM87.2659 4.93299C83.189 4.93299 80.1443 7.70381 80.1443 11.7815C80.1443 15.8591 83.189 18.6299 87.2659 18.6299C91.3421 18.6299 94.3868 15.8591 94.3868 11.7815C94.3868 7.70381 91.3421 4.93299 87.2659 4.93299ZM71.1215 15.2895C69.1366 15.2895 67.6539 13.9049 67.6539 11.7867C67.6539 9.67003 69.1366 8.28387 71.1223 8.28387C73.0817 8.28387 74.5899 9.61764 74.5899 11.7867C74.5899 13.9303 73.0817 15.2895 71.1223 15.2895H71.1215ZM77.6848 0.0252933H74.7793C74.7409 0.0250962 74.7029 0.0324514 74.6674 0.0469391C74.632 0.0614267 74.5997 0.082763 74.5724 0.10973C74.5452 0.136696 74.5235 0.168765 74.5087 0.204106C74.4938 0.239446 74.4861 0.277365 74.4859 0.315698V7.13497C73.5855 5.88054 72.1027 4.91278 70.0377 4.91278C66.8081 4.91278 64.0545 7.37074 64.0545 11.7882C64.0545 16.2049 66.8088 18.6614 70.0901 18.6614C72.0234 18.6614 73.5331 17.8253 74.4851 16.4923V18.0319C74.4853 18.0703 74.4931 18.1083 74.508 18.1437C74.5229 18.1791 74.5446 18.2112 74.5719 18.2381C74.5993 18.2651 74.6316 18.2864 74.6672 18.3009C74.7028 18.3153 74.7409 18.3226 74.7793 18.3223H77.6848C77.7232 18.3226 77.7613 18.3153 77.7969 18.3009C77.8324 18.2864 77.8648 18.2651 77.8921 18.2381C77.9195 18.2112 77.9412 18.1791 77.9561 18.1437C77.971 18.1083 77.9788 18.0703 77.979 18.0319V0.316447C77.9789 0.277987 77.9712 0.239926 77.9563 0.20445C77.9415 0.168974 77.9197 0.136783 77.8924 0.109728C77.8651 0.0826719 77.8327 0.0612844 77.797 0.0467944C77.7614 0.0323043 77.7233 0.0249973 77.6848 0.0252933ZM62.1302 14.3659C62.1302 17.3456 59.9327 18.6269 56.4119 18.6269C53.9801 18.6269 51.8882 17.9802 50.6914 16.6427C50.6464 16.5906 50.621 16.5243 50.6196 16.4555C50.6183 16.3866 50.641 16.3194 50.6839 16.2655L52.3634 14.1122C52.3896 14.0796 52.4226 14.053 52.4599 14.0342C52.4973 14.0154 52.5383 14.0049 52.5801 14.0033C52.6219 14.0017 52.6636 14.0092 52.7023 14.0251C52.7409 14.0411 52.7757 14.0651 52.8043 14.0957C53.6927 14.9931 55.0572 15.5417 56.7562 15.5417C57.7359 15.5417 58.5301 15.2813 58.5301 14.5493C58.5301 13.8427 57.8153 13.687 55.5916 13.2163C53.6321 12.8233 51.1966 11.9356 51.1966 9.08623C51.1966 6.44639 53.3147 4.92999 56.7831 4.92999C59.0637 4.92999 60.7036 5.6096 61.86 6.67991C61.913 6.73015 61.9453 6.79847 61.9505 6.87136C61.9556 6.94426 61.9332 7.01642 61.8877 7.0736L60.2934 9.11691C60.2697 9.14822 60.2397 9.17435 60.2055 9.19369C60.1712 9.21302 60.1334 9.22517 60.0943 9.22937C60.0552 9.23357 60.0157 9.22975 59.9781 9.21814C59.9405 9.20652 59.9057 9.18736 59.8758 9.16182C59.0937 8.47323 57.7951 8.04062 56.5182 8.04062C55.4329 8.04062 54.8237 8.38117 54.8237 8.95599C54.8237 9.6094 55.5392 9.76658 57.8954 10.2628C60.1976 10.759 62.1302 11.622 62.1302 14.3659ZM48.6937 14.3734C48.6937 17.353 46.4962 18.6344 42.9754 18.6344C40.5437 18.6344 38.4517 17.9877 37.2549 16.6502C37.2101 16.5981 37.1848 16.532 37.1835 16.4633C37.1821 16.3946 37.2047 16.3276 37.2474 16.2737L38.927 14.1197C38.9533 14.0872 38.9862 14.0607 39.0236 14.0419C39.0609 14.0232 39.1019 14.0127 39.1437 14.0112C39.1854 14.0096 39.227 14.017 39.2657 14.0329C39.3044 14.0488 39.3392 14.0727 39.3678 14.1032C40.2563 15.0014 41.6207 15.55 43.3197 15.55C44.2995 15.55 45.0936 15.2888 45.0936 14.5568C45.0936 13.8502 44.3788 13.6945 42.1551 13.2237C40.1956 12.8316 37.7601 11.9431 37.7601 9.09371C37.7601 6.45387 39.8783 4.93823 43.3467 4.93823C45.6265 4.93823 47.2664 5.61783 48.4228 6.68739C48.4758 6.73764 48.5081 6.80596 48.5132 6.87885C48.5184 6.95174 48.496 7.02391 48.4505 7.08108L46.8562 9.1244C46.8325 9.15565 46.8026 9.18174 46.7685 9.20108C46.7343 9.22041 46.6966 9.23259 46.6576 9.23686C46.6186 9.24113 46.5791 9.23741 46.5416 9.22593C46.5041 9.21444 46.4693 9.19543 46.4393 9.17005C45.6572 8.48146 44.3586 8.04735 43.081 8.04735C41.9957 8.04735 41.3864 8.38865 41.3864 8.96348C41.3864 9.61689 42.1027 9.77407 44.4581 10.2703C46.7604 10.7665 48.6937 11.6295 48.6937 14.3734ZM31.2784 13.0411C31.2784 14.4782 30.0883 15.7334 28.2344 15.7334C27.0166 15.7334 26.3542 15.184 26.3542 14.3479C26.3542 13.6159 26.9111 13.0666 27.9964 12.9094L31.2784 12.5179V13.0411ZM28.9754 4.96442C26.2031 4.96442 24.1141 5.88054 23.1807 7.69108C23.1498 7.75417 23.1425 7.82626 23.1603 7.89425C23.178 7.96224 23.2195 8.02161 23.2773 8.06157L25.3955 9.55551C25.5287 9.64907 25.7158 9.61839 25.7959 9.47692C26.3842 8.43132 27.7022 8.0743 28.9754 8.0743C30.5374 8.0743 31.2777 8.62218 31.2777 9.38112V9.58994C31.2777 9.9043 31.0928 10.0615 30.5898 10.1131L26.9627 10.4267C24.5272 10.661 22.7279 12.1512 22.7279 14.5298C22.7279 16.9346 24.5804 18.6075 27.2015 18.6075C29.2665 18.6075 30.5898 17.6143 31.2777 16.5686V18.0558C31.2779 18.0942 31.2856 18.1322 31.3005 18.1676C31.3154 18.203 31.3372 18.2351 31.3645 18.2621C31.3918 18.2891 31.4242 18.3104 31.4598 18.3248C31.4953 18.3393 31.5334 18.3465 31.5718 18.3463H34.4781C34.5165 18.3465 34.5546 18.3393 34.5901 18.3248C34.6257 18.3104 34.6581 18.2891 34.6854 18.2621C34.7128 18.2351 34.7345 18.203 34.7494 18.1676C34.7643 18.1322 34.772 18.0942 34.7722 18.0558V10.2703C34.7722 6.63724 32.8397 4.96442 28.9754 4.96442ZM20.3306 0.314201V18.0289C20.3305 18.0674 20.3228 18.1054 20.3079 18.1409C20.2931 18.1764 20.2714 18.2086 20.244 18.2356C20.2167 18.2627 20.1843 18.2841 20.1487 18.2986C20.113 18.313 20.0749 18.3204 20.0364 18.3201H17.104C17.0655 18.3204 17.0274 18.313 16.9917 18.2986C16.9561 18.2841 16.9237 18.2627 16.8964 18.2356C16.869 18.2086 16.8473 18.1764 16.8325 18.1409C16.8176 18.1054 16.8099 18.0674 16.8098 18.0289V0.308962C16.8098 0.151784 16.9393 0.0245448 17.098 0.0245448H20.0364C20.0748 0.0242489 20.1129 0.0315313 20.1485 0.0459746C20.1841 0.060418 20.2164 0.0817385 20.2438 0.108715C20.2711 0.135692 20.2928 0.167794 20.3077 0.203183C20.3226 0.238572 20.3304 0.276553 20.3306 0.31495V0.314201ZM7.06777 15.276C5.08283 15.276 3.60012 13.8906 3.60012 11.7732C3.60012 9.65581 5.08209 8.2704 7.06777 8.2704C9.05345 8.2704 10.5092 9.60416 10.5092 11.7732C10.5092 13.9161 9.05345 15.276 7.06777 15.276ZM13.6303 5.23911H10.7278C10.6493 5.23871 10.5739 5.26945 10.518 5.3246C10.4622 5.37974 10.4305 5.45478 10.4299 5.53326V7.06911C9.6889 5.89252 8.15304 4.9255 6.11497 4.9255C2.8322 4.9255 0 7.35652 0 11.7216C0 16.0597 2.69972 18.4368 6.2205 18.4368C8.12685 18.4368 9.60881 17.6532 10.483 16.4249V17.261C10.483 19.1426 9.55567 20.6328 6.59099 20.6328C5.1008 20.6328 3.904 20.1433 2.85465 19.2257C2.82316 19.1971 2.78578 19.1758 2.74514 19.1633C2.70451 19.1507 2.66162 19.1472 2.6195 19.1531C2.57738 19.159 2.53705 19.174 2.50138 19.1971C2.46571 19.2203 2.43556 19.251 2.41306 19.2871L1.0965 21.4651C0.926601 21.7465 0.949804 21.9045 1.05758 21.9973C2.40931 23.1574 4.16746 23.8737 6.72347 23.8737C12.2831 23.8737 13.9245 20.8162 13.9245 17.4443V5.52951C13.9243 5.49112 13.9165 5.45314 13.9016 5.41775C13.8867 5.38236 13.865 5.35026 13.8376 5.32328C13.8103 5.2963 13.7779 5.27498 13.7424 5.26054C13.7068 5.2461 13.6687 5.23881 13.6303 5.23911Z" fill="#0CAA41"/>
</g>
<defs>
<clipPath id="clip0_2309_5636">
<rect width="122" height="24" fill="white"/>
</clipPath>
</defs>
</svg>
