<svg xmlns="http://www.w3.org/2000/svg" width="75" height="74.703" viewBox="0 0 75 74.703">
  <g id="user-engagement" transform="translate(-1.507 -1.63)">
    <g id="Group_12910" data-name="Group 12910" transform="translate(1.507 1.63)">
      <path id="Path_26" data-name="Path 26" d="M23.686,35.193l4.227-4.227a2.314,2.314,0,0,0,0-3.275l-6-6a2.314,2.314,0,0,0-3.275,0L14.41,25.916Z" transform="translate(0.954 2.068)" fill="#1e2ec1"/>
      <path id="Path_27" data-name="Path 27" d="M40.442,40.219a2.314,2.314,0,0,0-3.275,0L32.94,44.446l9.276,9.276L46.444,49.5a2.314,2.314,0,0,0,0-3.275Z" transform="translate(4.49 5.604)" fill="#1e2ec1"/>
      <path id="Path_28" data-name="Path 28" d="M43.222,19.835a1.094,1.094,0,0,1-.262-.262,11.448,11.448,0,0,0-9.348-5.013c-.048,0-.083.012-.131.012s-.083-.012-.131-.012A11.448,11.448,0,0,0,24,19.573a1.365,1.365,0,0,1-.262.262,12.6,12.6,0,0,0,19.482,0Z" transform="translate(2.735 0.837)" fill="#1e2ec1"/>
      <path id="Path_29" data-name="Path 29" d="M29.683,15.372a6.2,6.2,0,0,1-.965-1.107,6.327,6.327,0,1,1,10.455-.012,6.569,6.569,0,0,1-.965,1.107,13.706,13.706,0,0,1,6.823,4.93,12.635,12.635,0,1,0-22.2,0,13.974,13.974,0,0,1,6.847-4.918Z" transform="translate(2.269 -1.63)" fill="#1e2ec1"/>
      <path id="Path_30" data-name="Path 30" d="M32.474,13.863h.167a3.99,3.99,0,1,0-.167,0Z" transform="translate(3.658 -0.811)" fill="#1e2ec1"/>
      <path id="Path_31" data-name="Path 31" d="M55.811,36.954h.143A3.257,3.257,0,1,0,52.62,33.7a3.182,3.182,0,0,0,.572,1.834,3.264,3.264,0,0,0,2.62,1.417Z" transform="translate(8.245 3.867)" fill="#1e2ec1"/>
      <path id="Path_32" data-name="Path 32" d="M57.1,26.62a10.843,10.843,0,0,0-9.622,15.9,12.05,12.05,0,0,1,5.644-4.156,5.213,5.213,0,0,1-.655-.786A5.607,5.607,0,1,1,62.711,34.42a5.591,5.591,0,0,1-.965,3.144,4.66,4.66,0,0,1-.667.786,11.934,11.934,0,0,1,5.644,4.156A10.833,10.833,0,0,0,57.1,26.62Z" transform="translate(7.026 3.138)" fill="#1e2ec1"/>
      <path id="Path_33" data-name="Path 33" d="M56.8,37.88c-.036,0-.071.012-.107.012s-.071-.012-.107-.012a9.69,9.69,0,0,0-7.907,4.239,1.1,1.1,0,0,1-.262.262,10.862,10.862,0,0,0,16.564,0,1.1,1.1,0,0,1-.262-.262A9.713,9.713,0,0,0,56.8,37.88Z" transform="translate(7.444 5.287)" fill="#1e2ec1"/>
      <path id="Path_34" data-name="Path 34" d="M49.487,19.4a.96.96,0,0,1-.167.143,8.84,8.84,0,0,0,12.527-.012.96.96,0,0,1-.167-.143,7.685,7.685,0,0,0-12.194.012Z" transform="translate(7.616 1.186)" fill="#1e2ec1"/>
      <path id="Path_35" data-name="Path 35" d="M52.378,16.647a4.1,4.1,0,0,1-.333-.429,4.774,4.774,0,1,1,8.717-2.691,4.866,4.866,0,0,1-.822,2.691,4.1,4.1,0,0,1-.333.429,10.028,10.028,0,0,1,4.061,2.917A8.834,8.834,0,1,0,47.15,15.218a8.7,8.7,0,0,0,1.179,4.346,9.991,9.991,0,0,1,4.049-2.917Z" transform="translate(7.202 -0.726)" fill="#1e2ec1"/>
      <path id="Path_36" data-name="Path 36" d="M54.969,15.209a2.429,2.429,0,1,0-2.429-2.429,2.362,2.362,0,0,0,.429,1.369,2.416,2.416,0,0,0,2,1.06Z" transform="translate(8.23 0.034)" fill="#1e2ec1"/>
      <path id="Path_37" data-name="Path 37" d="M34.038,39.948a1.165,1.165,0,0,0,1.536-.619l2.37-5.68a1.178,1.178,0,0,0-1.084-1.631H33.823l1.5-3.882a1.169,1.169,0,0,0-2.179-.845l-2.132,5.466a1.141,1.141,0,0,0,.131,1.084,1.166,1.166,0,0,0,.965.512H35.1l-1.691,4.061a1.178,1.178,0,0,0,.631,1.536Z" transform="translate(4.107 3.124)" fill="#1e2ec1"/>
      <path id="Path_38" data-name="Path 38" d="M10.767,17.63a1.174,1.174,0,0,0,1.024.393,1.161,1.161,0,0,0,.893-.619l1.381-2.656,2.81,3.382a1.213,1.213,0,0,0,.905.429,1.147,1.147,0,0,0,.75-.274,1.173,1.173,0,0,0,.155-1.655L14.744,11.89a1.173,1.173,0,0,0-1.024-.417,1.154,1.154,0,0,0-.917.619L11.4,14.784l-2.739-3.12A1.173,1.173,0,0,0,6.9,13.212Z" transform="translate(-0.535 0.208)" fill="#1e2ec1"/>
      <path id="Path_39" data-name="Path 39" d="M53.4,52.835l-2.929.834.381-4.144a1.172,1.172,0,1,0-2.334-.214l-.536,5.847A1.182,1.182,0,0,0,48.4,56.17a1.166,1.166,0,0,0,1.072.226l2.87-.822-.524,4.37a1.167,1.167,0,0,0,1.024,1.3c.048,0,.1.012.143.012a1.181,1.181,0,0,0,1.167-1.036l.726-6.121A1.162,1.162,0,0,0,53.4,52.835Z" transform="translate(7.359 7.265)" fill="#1e2ec1"/>
      <path id="Path_40" data-name="Path 40" d="M30.6,55.266a9.217,9.217,0,0,1-12.515.619,9.062,9.062,0,0,1-.453-13.218L24.505,35.8,15.229,26.52,8,33.748a22.144,22.144,0,0,0,0,31.33l.012.012a22.144,22.144,0,0,0,31.33,0l7.228-7.228-9.276-9.276Z" transform="translate(-1.507 3.119)" fill="#1e2ec1"/>
    </g>
  </g>
</svg>
