<svg xmlns="http://www.w3.org/2000/svg" width="75.001" height="67.243" viewBox="0 0 75.001 67.243">
  <g id="call-service" transform="translate(0.001 -24.737)">
    <path id="Path_41" data-name="Path 41" d="M267.735,76.8c-1.03-3.033-3.058-11.815-13.113-13.94L256,62.5a7.444,7.444,0,0,0,5.533-7.191V53.926a1.955,1.955,0,0,0,1-1.273,4.994,4.994,0,0,0,0-9.987,1.951,1.951,0,0,0-.93-1.229,15.065,15.065,0,0,0-1.386-7.132,15.859,15.859,0,0,0-2.187-3.48c-8.094-10.319-26.207-7.158-29.239,6.74-.005.021-.005.038-.01.057a16.509,16.509,0,0,1,2.228,2.255c.027.032.046.063.073.1C235.46,25,256.753,25.75,259.4,41.619a1.956,1.956,0,0,0-.755,1.524v9.034a1.966,1.966,0,0,0,.7,1.485,2.2,2.2,0,0,0,.2.135v1.509c0,5.409-5.874,5.748-11.109,7.135a2.06,2.06,0,1,0,.453,1.941l3.485-.923a14.493,14.493,0,0,1-1.429.847,4.045,4.045,0,0,1-7.647,1.337,13.043,13.043,0,0,1-4.817-1.724,7.5,7.5,0,0,1-3.275,1.7c-.029.038-.058.074-.09.111a9.923,9.923,0,0,1-2.228,6.484A20.071,20.071,0,0,1,240.732,81h24A3.174,3.174,0,0,0,267.735,76.8Z" transform="translate(-192.906)" fill="#1e2ec1"/>
    <path id="Path_42" data-name="Path 42" d="M270.275,97.4a4.06,4.06,0,0,1,3.409-1.869,4.018,4.018,0,0,1,2.481.868c4.145-2.282,7.059-7.711,7.059-14.051,0-8.4-5.111-15.2-11.419-15.2-5.747,0-10.491,5.666-11.284,13.032a19.236,19.236,0,0,1,1.066,3.3,17.832,17.832,0,0,1,.387,3.322,7.543,7.543,0,0,1,5.8,7.29,7.348,7.348,0,0,1-.38,2.285A9.21,9.21,0,0,0,270.275,97.4Z" transform="translate(-219.67 -35.76)" fill="#1e2ec1"/>
    <path id="Path_43" data-name="Path 43" d="M36.9,335.2c-1.722.911-2.357.92-8.939,2.665a4.045,4.045,0,0,1-6.49-1.081,13.6,13.6,0,0,1-6.845-3.142A16.4,16.4,0,0,0,1.329,344.6C.386,347.373-.7,349.122.6,350.936c1.568,2.194,1.458,1.347,42.628,1.347a3.229,3.229,0,0,0,3.054-4.26C45.065,344.444,43.718,338.6,36.9,335.2Z" transform="translate(0 -260.464)" fill="#1e2ec1"/>
    <path id="Path_44" data-name="Path 44" d="M86.847,166.387a3.993,3.993,0,0,1,4.559-1.683l3.536-.938c5.321-4.99,4.546-11.25,4.546-15.9-2.671-15.219-19.469-15.628-22.214,0,0,24.936,0-17.993,0,6.943C78.346,160.883,82.137,165.543,86.847,166.387Z" transform="translate(-65.157 -94.072)" fill="#1e2ec1"/>
    <path id="Path_45" data-name="Path 45" d="M10.207,120.715A1.96,1.96,0,0,0,12.1,122.23a1.991,1.991,0,0,0,1.992-1.99v-9.034a1.959,1.959,0,0,0-.757-1.526,15.462,15.462,0,0,1,4.242-8.229,14.2,14.2,0,0,1,20.226,0,15.431,15.431,0,0,1,4.24,8.23c-1.176.954-.755,1.777-.755,10.559a1.952,1.952,0,0,0,.9,1.621v1.51c0,5.231-5.16,5.557-11.107,7.134a2.061,2.061,0,1,0,.453,1.941c6.156-1.63,12.646-2.246,12.646-9.075v-1.382a1.943,1.943,0,0,0,.993-1.275,4.993,4.993,0,0,0,0-9.984,1.946,1.946,0,0,0-.928-1.231,14.175,14.175,0,0,0-.3-3.871,16.749,16.749,0,0,0-1.081-3.261,16.749,16.749,0,0,0-5.584-6.625C25.777,87.774,9.9,97.2,11.13,109.5a1.946,1.946,0,0,0-.923,1.227,4.994,4.994,0,0,0,0,9.986Z" transform="translate(-4.465 -57.39)" fill="#1e2ec1"/>
  </g>
</svg>
