<svg xmlns="http://www.w3.org/2000/svg" width="75" height="73.225" viewBox="0 0 75 73.225">
  <g id="Layer_1-2" transform="translate(0.01 0.007)">
    <path id="Path_46" data-name="Path 46" d="M43.921,68.471c1.357.643,2.7,1.317,4.08,1.887a1.367,1.367,0,0,0,1.148-.193q7.337-5.927,14.625-11.91c1.711-1.405,3.461-2.626,5.855-2.345a5.465,5.465,0,0,1,4.787,3.574c.867,2.16.883,4.3-.867,6.056a48.788,48.788,0,0,1-3.71,3.213c-4.538,3.7-9.156,7.3-13.6,11.1A16.918,16.918,0,0,1,47.2,83.57a61.743,61.743,0,0,1-7.887.61C26.533,84.236,13.748,84.2.97,84.2c-.6,0-.988,0-.98-.819.04-6.521.024-13.051.032-19.572V61.155C.809,61.106,1.4,61.042,2,61.042c2.377-.008,4.755-.016,7.124.016a1.157,1.157,0,0,0,1.309-.771,6.74,6.74,0,0,1,6.891-4.457c7.429.072,14.858.048,22.279.056a7.349,7.349,0,0,1,4.144.875c4.481,2.819,3.815,9,.562,11.067-.193.12-.41.209-.618.313l.217.337ZM32.4,66.439c.024-.064.056-.129.08-.185.217.008.426.032.642.032,2.57-.032,5.148.064,7.7-.145a3.54,3.54,0,0,0,2.988-4.232,3.457,3.457,0,0,0-3.775-3q-10.433-.012-20.873,0c-.8,0-1.606-.024-2.409.032a3.526,3.526,0,0,0-3.63,3.51c-.072.8-.1,1.6-.1,2.4.008,4.915.04,9.83.056,14.753,0,1.373-.008,1.381,1.381,1.381,9.164,0,18.327.032,27.491-.032a32.452,32.452,0,0,0,5.574-.554A12.483,12.483,0,0,0,53.92,77.8C56.169,75.8,58.594,74,60.931,72.117c3.221-2.61,6.457-5.2,9.654-7.847a2.952,2.952,0,0,0,.683-4.032,3,3,0,0,0-4.12-.683,18.925,18.925,0,0,0-2.008,1.5c-5.108,4.16-10.224,8.312-15.3,12.5a1.493,1.493,0,0,1-1.863.209C43.1,71.507,38.2,69.306,33.32,67.066a7.827,7.827,0,0,1-.94-.61Z" transform="translate(0 -10.993)" fill="#1e2ec1"/>
    <path id="Path_47" data-name="Path 47" d="M26.052,37.891c.12-1.6.249-3.2.345-4.8a1.186,1.186,0,0,1,.932-1.2c1.928-.739,3.815-1.6,5.694-2.474a1.107,1.107,0,0,1,1.389.249c2.562,2.12,3.8,5.036,4.859,8.047a1.686,1.686,0,0,0,1.767,1.261,16.234,16.234,0,0,0,13.324-5.293c1.622-1.719,1.63-1.67.763-3.831A47.675,47.675,0,0,1,53.253,24.8a13.557,13.557,0,0,1-.241-3.389,1.119,1.119,0,0,1,.45-.867c2.088-.972,4.192-1.911,6.329-2.779A1.568,1.568,0,0,1,61.1,18q2.831,2.241,5.542,4.634a1.48,1.48,0,0,1,.369,1.2c-1.695,7.887-6.272,13.589-13.324,17.372a31.186,31.186,0,0,1-14.031,4.008,23.544,23.544,0,0,1-12.7-3.4,1.778,1.778,0,0,1-1.044-2.128,11.1,11.1,0,0,0,.112-1.8Z" transform="translate(-5.092 -3.487)" fill="#1e2ec1"/>
    <path id="Path_48" data-name="Path 48" d="M60.628,6.817c-.61.659-1.173,1.261-1.839,1.976a20.182,20.182,0,0,0-14.81-6.12A20.177,20.177,0,0,0,29.025,8.841C28.406,8.19,27.844,7.6,27.29,7.01,34.414-.917,49.3-3.6,60.628,6.817Z" transform="translate(-5.375 0)" fill="#1e2ec1"/>
    <path id="Path_49" data-name="Path 49" d="M36.312,16.87c-.578-.667-1.052-1.221-1.662-1.928a14.955,14.955,0,0,1,9.5-4.433,14.6,14.6,0,0,1,11.814,4.433c-.072.169-.08.241-.128.281-1.526,1.454-1.494,1.414-3.253.169a11.277,11.277,0,0,0-5.421-2.128,12.639,12.639,0,0,0-10.858,3.6Z" transform="translate(-6.824 -2.062)" fill="#1e2ec1"/>
    <path id="Path_50" data-name="Path 50" d="M46.467,19.195A8.222,8.222,0,0,1,51.7,20.978c.594.434.675.771.12,1.333-1.044,1.052-.988,1.02-2.3.3a5.413,5.413,0,0,0-5.951.1,1.6,1.6,0,0,1-2.458-.94.924.924,0,0,1,.337-.731,7.534,7.534,0,0,1,5-1.855Z" transform="translate(-8.096 -3.776)" fill="#1e2ec1"/>
    <path id="Path_51" data-name="Path 51" d="M47.284,31.153a2.85,2.85,0,0,1-2.674-2.626,2.787,2.787,0,0,1,2.8-2.707,2.913,2.913,0,0,1,2.634,2.69A2.819,2.819,0,0,1,47.284,31.153Z" transform="translate(-8.784 -5.085)" fill="#1e2ec1"/>
  </g>
</svg>
