<svg xmlns="http://www.w3.org/2000/svg" width="74.999" height="60.303" viewBox="0 0 74.999 60.303">
  <g id="appointment-book" transform="translate(-14.583 -37.852)">
    <path id="Path_13" data-name="Path 13" d="M189.548,152.239c-.013-.3-.061-1.234-.1-1.682-.149-1.835-.381-3.912-.412-4.191a1.743,1.743,0,0,0-3.485.007c-.032.279-.263,2.352-.412,4.184-.042.513-.078,1-.092,1.432-.026.765-.008,1.325,0,1.429a.068.068,0,0,0,0,.008,2.25,2.25,0,0,0,1.125,1.935l.034.018s.924.463,1.883.867c.85.358,1.7.661,1.906.732a1.742,1.742,0,0,0,1.728-3.023l.006,0c-.174-.15-.854-.729-1.581-1.279C189.945,152.527,189.741,152.377,189.548,152.239Z" transform="translate(-116.626 -73.084)" fill="#1e2ec1" fill-rule="evenodd"/>
    <path id="Path_14" data-name="Path 14" d="M190.109,121.1l.2,1.724a.461.461,0,0,0,.923,0l.2-1.724a.658.658,0,1,0-1.316,0Z" transform="translate(-120.097 -56.507)" fill="#1e2ec1" fill-rule="evenodd"/>
    <path id="Path_15" data-name="Path 15" d="M220.9,134.222l-1.08,1.358a.461.461,0,1,0,.652.652l1.358-1.08a.658.658,0,1,0-.93-.931Z" transform="translate(-140.332 -65.806)" fill="#1e2ec1" fill-rule="evenodd"/>
    <path id="Path_16" data-name="Path 16" d="M233.859,166.84l-1.724.2a.461.461,0,1,0,0,.922l1.724.2a.658.658,0,0,0,0-1.316Z" transform="translate(-148.537 -88.256)" fill="#1e2ec1" fill-rule="evenodd"/>
    <path id="Path_17" data-name="Path 17" d="M221.828,197.629l-1.358-1.08a.461.461,0,1,0-.652.652l1.08,1.358a.658.658,0,1,0,.93-.931Z" transform="translate(-140.332 -108.49)" fill="#1e2ec1" fill-rule="evenodd"/>
    <path id="Path_18" data-name="Path 18" d="M191.425,210.591l-.2-1.724a.461.461,0,0,0-.923,0l-.2,1.724a.658.658,0,1,0,1.316,0Z" transform="translate(-120.097 -116.696)" fill="#1e2ec1" fill-rule="evenodd"/>
    <path id="Path_19" data-name="Path 19" d="M158.421,198.559l1.08-1.358a.461.461,0,1,0-.652-.652l-1.358,1.08a.658.658,0,1,0,.93.931Z" transform="translate(-97.648 -108.49)" fill="#1e2ec1" fill-rule="evenodd"/>
    <path id="Path_20" data-name="Path 20" d="M144.365,168.156l1.724-.2a.461.461,0,1,0,0-.922l-1.724-.2a.658.658,0,0,0,0,1.316Z" transform="translate(-88.349 -88.256)" fill="#1e2ec1" fill-rule="evenodd"/>
    <path id="Path_21" data-name="Path 21" d="M157.491,135.152l1.358,1.08a.461.461,0,1,0,.652-.652l-1.08-1.358a.658.658,0,1,0-.93.931Z" transform="translate(-97.648 -65.806)" fill="#1e2ec1" fill-rule="evenodd"/>
    <path id="Path_22" data-name="Path 22" d="M111.958,45.874a.658.658,0,0,0,.657.614h2.361a.658.658,0,0,0,.657-.614c0-.034,0-.069,0-.1a7.444,7.444,0,0,0-1.933-5.39,7.724,7.724,0,0,0-5.389-2.52h-.008a7.828,7.828,0,0,0-5.738,2.156,7.964,7.964,0,0,0-2.437,5.726c0,.016,0,.033,0,.049a7.779,7.779,0,0,0,2.62,5.566,7.364,7.364,0,0,0,5.567,1.752,1.841,1.841,0,0,0,0-3.681,3.574,3.574,0,0,1-2.238-1.4,3.151,3.151,0,0,1-.7-2.239c0-.016,0-.033,0-.049a2.978,2.978,0,0,1,.824-2.088,3.107,3.107,0,0,1,2.1-1.051h.008a3.289,3.289,0,0,1,2.395.771,3.549,3.549,0,0,1,1.244,2.386Zm2.373-.7H113.2a4.929,4.929,0,0,0-1.621-2.783,4.6,4.6,0,0,0-3.336-1.1,4.415,4.415,0,0,0-2.994,1.462,4.29,4.29,0,0,0-1.183,2.99,4.447,4.447,0,0,0,1,3.132A4.854,4.854,0,0,0,108.2,50.74a.632.632,0,0,0,.077,0,.525.525,0,1,1,0,1.051.7.7,0,0,0-.077,0,6.053,6.053,0,0,1-4.6-1.452,6.456,6.456,0,0,1-2.147-4.6,6.649,6.649,0,0,1,2.023-4.771,6.513,6.513,0,0,1,4.77-1.8,6.413,6.413,0,0,1,4.476,2.078,6.212,6.212,0,0,1,1.613,3.92Z" transform="translate(-58.534 0)" fill="#1e2ec1" fill-rule="evenodd"/>
    <path id="Path_23" data-name="Path 23" d="M56.687,45.874a.658.658,0,0,0,.657.614h2.361a.658.658,0,0,0,.657-.614c0-.034,0-.069,0-.1a7.444,7.444,0,0,0-1.933-5.39,7.724,7.724,0,0,0-5.389-2.52h-.008A7.828,7.828,0,0,0,47.3,40.017a7.964,7.964,0,0,0-2.437,5.726c0,.016,0,.033,0,.049a7.779,7.779,0,0,0,2.62,5.566,7.364,7.364,0,0,0,5.567,1.752,1.841,1.841,0,0,0,0-3.681,3.574,3.574,0,0,1-2.238-1.4,3.152,3.152,0,0,1-.7-2.239c0-.016,0-.033,0-.049a2.979,2.979,0,0,1,.824-2.088,3.107,3.107,0,0,1,2.1-1.051h.008a3.289,3.289,0,0,1,2.395.771,3.549,3.549,0,0,1,1.244,2.386Zm2.373-.7h-1.13a4.929,4.929,0,0,0-1.621-2.783,4.6,4.6,0,0,0-3.336-1.1,4.415,4.415,0,0,0-2.994,1.462,4.29,4.29,0,0,0-1.183,2.99,4.449,4.449,0,0,0,1,3.132,4.854,4.854,0,0,0,3.129,1.866.632.632,0,0,0,.077,0,.525.525,0,1,1,0,1.051.7.7,0,0,0-.077,0,6.053,6.053,0,0,1-4.6-1.452,6.457,6.457,0,0,1-2.147-4.6A6.649,6.649,0,0,1,48.2,40.974a6.513,6.513,0,0,1,4.77-1.8,6.413,6.413,0,0,1,4.476,2.078,6.212,6.212,0,0,1,1.613,3.92Z" transform="translate(-20.717 0)" fill="#1e2ec1" fill-rule="evenodd"/>
    <path id="Path_24" data-name="Path 24" d="M151.214,109.032a18.913,18.913,0,1,0,18.913,18.913A18.922,18.922,0,0,0,151.214,109.032Zm0,4.918a14,14,0,1,1-13.995,13.995A14,14,0,0,1,151.214,113.95Z" transform="translate(-80.544 -48.702)" fill="#1e2ec1" fill-rule="evenodd"/>
    <path id="Path_25" data-name="Path 25" d="M56.672,109.7a20.239,20.239,0,0,1-5.166-21.088H24.46a.658.658,0,0,1,0-1.316H52A20.281,20.281,0,0,1,66.677,75.27V68.7a7.661,7.661,0,0,0-7.662-7.662H46.188a.658.658,0,0,0-.657.629,4.448,4.448,0,0,0,1.006,3.073A4.854,4.854,0,0,0,49.665,66.6a.632.632,0,0,0,.077,0,.525.525,0,1,1,0,1.051.7.7,0,0,0-.077,0,6.053,6.053,0,0,1-4.6-1.452,6.445,6.445,0,0,1-2.145-4.564.658.658,0,0,0-.656-.611H28.734a.658.658,0,0,0-.657.629,4.448,4.448,0,0,0,1.006,3.073A4.854,4.854,0,0,0,32.212,66.6a.632.632,0,0,0,.077,0,.525.525,0,1,1,0,1.051.7.7,0,0,0-.077,0,6.053,6.053,0,0,1-4.6-1.452,6.445,6.445,0,0,1-2.145-4.564.658.658,0,0,0-.656-.611H22.245A7.662,7.662,0,0,0,14.583,68.7V102.04a7.662,7.662,0,0,0,7.662,7.662ZM24.46,99.12H49.689a.658.658,0,1,0,0-1.316H24.46a.658.658,0,0,0,0,1.316Zm3.817-21.012H56.8a.658.658,0,0,0,0-1.316H28.277a.658.658,0,0,0,0,1.316Z" transform="translate(0 -15.862)" fill="#1e2ec1" fill-rule="evenodd"/>
  </g>
</svg>
