<svg width="727" height="132" viewBox="0 0 727 132" fill="none" xmlns="http://www.w3.org/2000/svg">
<g clip-path="url(#clip0_2966_7936)">
<path d="M0.0251879 72.646V62.713C0.0801878 57.305 2.50819 53.994 7.70019 52.78C9.90719 52.28 9.52119 50.849 9.52119 49.469C9.79719 33.631 15.9772 20.608 28.2832 10.62C44.6682 -2.735 69.0002 -3.562 86.4422 8.523C98.6932 17.023 105.811 28.665 107.688 43.399C107.748 44.2 107.994 44.9761 108.405 45.6658C108.817 46.3554 109.384 46.9396 110.061 47.372C110.812 47.9002 111.443 48.5816 111.912 49.3713C112.381 50.161 112.677 51.041 112.781 51.9534C112.884 52.8658 112.794 53.7899 112.515 54.6647C112.236 55.5396 111.774 56.3454 111.161 57.029C110.537 57.7398 109.775 58.316 108.921 58.7225C108.067 59.1291 107.139 59.3573 106.194 59.3935C105.249 59.4296 104.307 59.2728 103.424 58.9326C102.542 58.5925 101.738 58.0761 101.061 57.415C98.2472 54.545 98.3022 49.8 101.613 47.482C103.544 46.158 103.599 44.723 103.324 42.791C99.9072 17.628 75.5162 0.134998 50.6282 4.991C40.1328 6.92995 30.6665 12.5317 23.9156 20.7984C17.1648 29.0651 13.5677 39.4598 13.7652 50.131C13.7652 51.676 14.0962 52.559 15.6962 53.166C17.551 53.7973 19.1484 55.0182 20.2444 56.6424C21.3404 58.2665 21.8748 60.2047 21.7662 62.161C21.8215 69.059 21.8215 75.957 21.7662 82.855C21.7112 87.38 19.6142 90.636 15.2542 92.015C13.6542 92.515 13.5432 93.395 13.8192 94.715C15.3642 101.999 17.0752 109.283 21.3792 115.574C24.5242 120.154 28.6632 123.024 34.4022 123.074C34.983 123.165 35.5775 123.056 36.0886 122.765C36.5996 122.475 36.9971 122.02 37.2162 121.474C38.4302 118.825 40.8032 117.832 43.5072 117.774C48.8602 117.719 54.1572 117.664 59.5072 117.774C63.8072 117.884 66.7362 120.864 66.7362 124.838C66.7362 128.922 63.6462 131.957 59.2862 132.012C54.1542 132.067 48.9672 132.067 43.8352 132.012C40.6352 131.957 38.1512 130.688 36.9352 127.542C36.7969 127.061 36.4952 126.644 36.082 126.362C35.6689 126.08 35.1703 125.951 34.6722 125.997C26.1722 125.997 20.9872 121.141 17.1242 114.243C13.8762 108.405 12.2202 102 11.1162 95.437C10.7852 93.561 10.2882 92.623 8.13619 92.347C3.11419 91.685 0.136188 88.153 0.0241879 83.076C-0.0308121 79.654 0.0251879 76.178 0.0251879 72.646Z" fill="#0E2E40"/>
<path d="M214.83 110.999V48.4531H254.043V56.5767H224.267V75.6335H251.997V83.7266H224.267V102.875H254.41V110.999H214.83Z" fill="#0E2E40"/>
<path d="M159.572 110.999V48.4531H198.785V56.5767H169.009V75.6335H196.739V83.7266H169.009V102.875H199.151V110.999H159.572Z" fill="#0E2E40"/>
<path d="M100.702 110.999V65.5V48.4531H122.996C127.842 48.4531 131.863 49.2879 135.059 50.9574C138.276 52.6269 140.678 54.9377 142.267 57.8899C143.855 60.8217 144.649 64.2116 144.649 68.0597C144.649 71.8873 143.844 75.2569 142.236 78.1683C140.648 81.0594 138.245 83.3092 135.029 84.9176C131.832 86.526 127.811 87.3303 122.965 87.3303H106.077V79.2067H122.11C125.164 79.2067 127.648 78.7689 129.562 77.8935C131.496 77.018 132.911 75.7455 133.807 74.076C134.703 72.4065 135.151 70.401 135.151 68.0597C135.151 65.6979 134.693 63.6518 133.776 61.9212C132.881 60.1906 131.466 58.8672 129.531 57.951C127.618 57.0144 125.103 56.5462 121.988 56.5462H118.251V48.4531H100.702V65.5H110.139V110.999H100.702ZM131.578 82.7798L147.031 110.999H136.281L121.133 82.7798H131.578Z" fill="#0E2E40"/>
<path d="M46.8713 110.999V48.4531H85.6568V56.5767H56.3081V75.6335H82.8777V83.7266H56.3081V110.999H46.8713Z" fill="#0E2E40"/>
<path d="M292.7 111.86C288.056 111.86 283.699 111 279.628 109.28C275.615 107.503 272.089 105.066 269.05 101.97C266.069 98.8167 263.718 95.1473 261.998 90.962C260.335 86.7767 259.504 82.2473 259.504 77.374C259.504 72.558 260.335 68.086 261.998 63.958C263.718 59.7727 266.069 56.132 269.05 53.036C272.089 49.8827 275.615 47.4173 279.628 45.64C283.641 43.8627 287.999 42.974 292.7 42.974C297.115 42.974 300.899 43.5473 304.052 44.694C307.263 45.8407 310.473 47.7327 313.684 50.37C314.143 50.714 314.487 51.0867 314.716 51.488C315.003 51.832 315.175 52.2047 315.232 52.606C315.347 52.95 315.404 53.38 315.404 53.896C315.404 54.9853 315.003 55.9027 314.2 56.648C313.455 57.336 312.537 57.7373 311.448 57.852C310.359 57.9093 309.298 57.5367 308.266 56.734C306.145 54.8993 303.937 53.4947 301.644 52.52C299.408 51.5453 296.427 51.058 292.7 51.058C289.317 51.058 286.135 51.746 283.154 53.122C280.173 54.498 277.535 56.39 275.242 58.798C273.006 61.206 271.257 64.0153 269.996 67.226C268.735 70.3793 268.104 73.762 268.104 77.374C268.104 81.0433 268.735 84.4833 269.996 87.694C271.257 90.8473 273.006 93.628 275.242 96.036C277.535 98.444 280.173 100.336 283.154 101.712C286.135 103.031 289.317 103.69 292.7 103.69C295.624 103.69 298.376 103.203 300.956 102.228C303.593 101.196 306.116 99.7913 308.524 98.014C309.556 97.2687 310.559 96.9533 311.534 97.068C312.566 97.1253 313.426 97.5267 314.114 98.272C314.802 98.96 315.146 99.9347 315.146 101.196C315.146 101.769 315.031 102.343 314.802 102.916C314.573 103.432 314.229 103.919 313.77 104.378C310.674 106.843 307.349 108.707 303.794 109.968C300.297 111.229 296.599 111.86 292.7 111.86ZM360.498 111.86C355.452 111.86 350.837 111.029 346.652 109.366C342.466 107.646 338.854 105.267 335.816 102.228C332.834 99.132 330.512 95.4913 328.85 91.306C327.187 87.0633 326.356 82.4193 326.356 77.374C326.356 72.3287 327.187 67.7133 328.85 63.528C330.512 59.3427 332.834 55.7307 335.816 52.692C338.854 49.596 342.466 47.2167 346.652 45.554C350.837 43.834 355.452 42.974 360.498 42.974C365.543 42.974 370.13 43.834 374.258 45.554C378.443 47.2167 382.055 49.596 385.094 52.692C388.132 55.7307 390.483 59.3427 392.146 63.528C393.808 67.7133 394.64 72.3287 394.64 77.374C394.64 82.4193 393.808 87.0633 392.146 91.306C390.483 95.4913 388.132 99.132 385.094 102.228C382.055 105.267 378.443 107.646 374.258 109.366C370.13 111.029 365.543 111.86 360.498 111.86ZM360.498 103.776C364.224 103.776 367.636 103.117 370.732 101.798C373.885 100.422 376.608 98.5587 378.902 96.208C381.195 93.8 382.944 90.9907 384.148 87.78C385.409 84.5693 386.04 81.1007 386.04 77.374C386.04 73.6473 385.409 70.1787 384.148 66.968C382.944 63.7573 381.195 60.9767 378.902 58.626C376.608 56.218 373.885 54.3547 370.732 53.036C367.636 51.7173 364.224 51.058 360.498 51.058C356.771 51.058 353.331 51.7173 350.178 53.036C347.082 54.3547 344.387 56.218 342.094 58.626C339.858 60.9767 338.109 63.7573 336.848 66.968C335.586 70.1787 334.956 73.6473 334.956 77.374C334.956 81.1007 335.586 84.5693 336.848 87.78C338.109 90.9907 339.858 93.8 342.094 96.208C344.387 98.5587 347.082 100.422 350.178 101.798C353.331 103.117 356.771 103.776 360.498 103.776ZM413.035 111C411.773 111 410.713 110.57 409.853 109.71C409.05 108.85 408.649 107.789 408.649 106.528V48.306C408.649 46.9873 409.05 45.9267 409.853 45.124C410.713 44.264 411.773 43.834 413.035 43.834C414.411 43.834 415.557 44.3787 416.475 45.468L453.971 95.348V48.306C453.971 46.9873 454.401 45.9267 455.261 45.124C456.121 44.264 457.181 43.834 458.443 43.834C459.761 43.834 460.822 44.264 461.625 45.124C462.427 45.9267 462.829 46.9873 462.829 48.306V106.528C462.829 107.789 462.427 108.85 461.625 109.71C460.822 110.57 459.761 111 458.443 111C457.869 111 457.239 110.885 456.551 110.656C455.92 110.369 455.404 109.968 455.003 109.452L417.507 59.572V106.528C417.507 107.789 417.077 108.85 416.217 109.71C415.414 110.57 414.353 111 413.035 111ZM484.422 111C483.16 111 482.1 110.57 481.24 109.71C480.437 108.85 480.036 107.789 480.036 106.528V48.306C480.036 46.9873 480.437 45.9267 481.24 45.124C482.1 44.264 483.16 43.834 484.422 43.834C485.798 43.834 486.944 44.3787 487.862 45.468L525.358 95.348V48.306C525.358 46.9873 525.788 45.9267 526.648 45.124C527.508 44.264 528.568 43.834 529.83 43.834C531.148 43.834 532.209 44.264 533.012 45.124C533.814 45.9267 534.216 46.9873 534.216 48.306V106.528C534.216 107.789 533.814 108.85 533.012 109.71C532.209 110.57 531.148 111 529.83 111C529.256 111 528.626 110.885 527.938 110.656C527.307 110.369 526.791 109.968 526.39 109.452L488.894 59.572V106.528C488.894 107.789 488.464 108.85 487.604 109.71C486.801 110.57 485.74 111 484.422 111ZM555.894 111C554.633 111 553.572 110.57 552.712 109.71C551.852 108.85 551.422 107.789 551.422 106.528V48.306C551.422 46.9873 551.852 45.9267 552.712 45.124C553.572 44.264 554.633 43.834 555.894 43.834H594.766C596.085 43.834 597.146 44.2353 597.948 45.038C598.751 45.7833 599.152 46.7867 599.152 48.048C599.152 49.252 598.751 50.2267 597.948 50.972C597.146 51.7173 596.085 52.09 594.766 52.09H560.366V72.988H585.048C586.367 72.988 587.428 73.3893 588.23 74.192C589.033 74.9373 589.434 75.912 589.434 77.116C589.434 78.32 589.033 79.3233 588.23 80.126C587.428 80.8713 586.367 81.244 585.048 81.244H560.366V102.744H594.766C596.085 102.744 597.146 103.117 597.948 103.862C598.751 104.607 599.152 105.582 599.152 106.786C599.152 108.047 598.751 109.079 597.948 109.882C597.146 110.627 596.085 111 594.766 111H555.894ZM641.739 111.86C637.095 111.86 632.738 111 628.667 109.28C624.654 107.503 621.128 105.066 618.089 101.97C615.108 98.8167 612.757 95.1473 611.037 90.962C609.374 86.7767 608.543 82.2473 608.543 77.374C608.543 72.558 609.374 68.086 611.037 63.958C612.757 59.7727 615.108 56.132 618.089 53.036C621.128 49.8827 624.654 47.4173 628.667 45.64C632.68 43.8627 637.038 42.974 641.739 42.974C646.154 42.974 649.938 43.5473 653.091 44.694C656.302 45.8407 659.512 47.7327 662.723 50.37C663.182 50.714 663.526 51.0867 663.755 51.488C664.042 51.832 664.214 52.2047 664.271 52.606C664.386 52.95 664.443 53.38 664.443 53.896C664.443 54.9853 664.042 55.9027 663.239 56.648C662.494 57.336 661.576 57.7373 660.487 57.852C659.398 57.9093 658.337 57.5367 657.305 56.734C655.184 54.8993 652.976 53.4947 650.683 52.52C648.447 51.5453 645.466 51.058 641.739 51.058C638.356 51.058 635.174 51.746 632.193 53.122C629.212 54.498 626.574 56.39 624.281 58.798C622.045 61.206 620.296 64.0153 619.035 67.226C617.774 70.3793 617.143 73.762 617.143 77.374C617.143 81.0433 617.774 84.4833 619.035 87.694C620.296 90.8473 622.045 93.628 624.281 96.036C626.574 98.444 629.212 100.336 632.193 101.712C635.174 103.031 638.356 103.69 641.739 103.69C644.663 103.69 647.415 103.203 649.995 102.228C652.632 101.196 655.155 99.7913 657.563 98.014C658.595 97.2687 659.598 96.9533 660.573 97.068C661.605 97.1253 662.465 97.5267 663.153 98.272C663.841 98.96 664.185 99.9347 664.185 101.196C664.185 101.769 664.07 102.343 663.841 102.916C663.612 103.432 663.268 103.919 662.809 104.378C659.713 106.843 656.388 108.707 652.833 109.968C649.336 111.229 645.638 111.86 641.739 111.86ZM698.357 111C697.095 111 696.035 110.57 695.175 109.71C694.315 108.85 693.885 107.789 693.885 106.528V43.834H702.829V106.528C702.829 107.789 702.399 108.85 701.539 109.71C700.679 110.57 699.618 111 698.357 111ZM675.309 52.09C674.105 52.09 673.101 51.7173 672.299 50.972C671.553 50.1693 671.181 49.166 671.181 47.962C671.181 46.758 671.553 45.7833 672.299 45.038C673.101 44.2353 674.105 43.834 675.309 43.834H721.319C722.523 43.834 723.497 44.2353 724.243 45.038C725.045 45.7833 725.447 46.758 725.447 47.962C725.447 49.166 725.045 50.1693 724.243 50.972C723.497 51.7173 722.523 52.09 721.319 52.09H675.309Z" fill="#1E30CE"/>
</g>
<defs>
<clipPath id="clip0_2966_7936">
<rect width="727" height="132" fill="white"/>
</clipPath>
</defs>
</svg>
