<?xml version="1.0" standalone="no"?>
<!DOCTYPE svg PUBLIC "-//W3C//DTD SVG 20010904//EN"
 "http://www.w3.org/TR/2001/REC-SVG-20010904/DTD/svg10.dtd">
<svg version="1.0" xmlns="http://www.w3.org/2000/svg"
 width="75.000000pt" height="70.000000pt" viewBox="0 0 75.000000 70.000000"
 preserveAspectRatio="xMidYMid meet">

<g transform="translate(0.000000,70.000000) scale(0.100000,-0.100000)"
fill="#1e2ec0" stroke="none">
<path d="M234 634 c-58 -21 -114 -72 -149 -135 -26 -47 -30 -64 -30 -129 0
-61 5 -84 27 -125 50 -96 131 -147 242 -154 62 -3 68 -2 63 14 -4 9 -7 18 -7
20 0 2 -8 1 -19 -2 -17 -4 -18 3 -15 114 l4 118 50 3 c50 3 50 3 50 -27 0 -22
4 -29 14 -25 8 3 16 15 18 27 3 19 11 22 51 25 42 3 49 0 54 -17 10 -41 23
-20 23 37 -1 99 -63 196 -155 244 -52 27 -164 34 -221 12z m86 -134 l0 -120
-55 0 c-63 0 -65 5 -41 95 19 74 62 145 88 145 4 0 8 -54 8 -120z m95 51 c23
-47 48 -155 37 -166 -9 -9 -101 -5 -107 4 -3 6 -2 59 1 120 7 103 8 109 25
100 11 -5 30 -32 44 -58z m-186 15 c-11 -20 -26 -68 -33 -108 l-12 -73 -52 -3
c-43 -3 -52 0 -52 14 0 65 67 166 132 197 18 9 34 14 36 13 1 -2 -7 -20 -19
-40z m295 -27 c35 -41 52 -75 60 -121 l7 -38 -54 0 -54 0 -7 51 c-6 45 -19 85
-51 162 -7 18 -5 18 32 -2 22 -11 52 -34 67 -52z m-332 -244 c5 -33 19 -82 32
-110 14 -27 23 -51 21 -53 -9 -9 -91 48 -113 77 -25 35 -52 103 -52 133 0 17
6 19 53 16 l52 -3 7 -60z m126 -57 c2 -96 0 -118 -11 -118 -24 0 -66 72 -83
142 -22 89 -17 100 43 96 l48 -3 3 -117z"/>
<path d="M468 268 c-60 -35 -79 -100 -43 -155 25 -38 99 -67 149 -58 23 4 56
8 75 10 28 2 35 6 36 26 2 13 8 38 16 56 41 99 -123 185 -233 121z m42 -99 c0
-12 -7 -19 -20 -19 -22 0 -29 35 -7 43 18 6 27 -2 27 -24z m70 5 c0 -19 -28
-30 -42 -16 -8 8 -8 15 1 26 14 17 41 10 41 -10z m64 -9 c-9 -22 -44 -19 -44
3 0 26 10 33 31 21 10 -5 16 -16 13 -24z"/>
</g>
</svg>
